<mxfile host="app.diagrams.net" modified="2023-12-27T05:11:13.907Z" agent="Mozilla/5.0 (Windows NT 10.0; Win64; x64) AppleWebKit/537.36 (KHTML, like Gecko) Chrome/120.0.0.0 Safari/537.36 Edg/120.0.0.0" etag="kBH_C9w6KhM6Mt2ayZey" version="22.1.11" type="github">
  <diagram name="Page-1" id="edf60f1a-56cd-e834-aa8a-f176f3a09ee4">
    <mxGraphModel dx="956" dy="541" grid="1" gridSize="10" guides="1" tooltips="1" connect="1" arrows="1" fold="1" page="1" pageScale="1" pageWidth="1100" pageHeight="850" background="none" math="0" shadow="0">
      <root>
        <mxCell id="0" />
        <mxCell id="1" parent="0" />
        <mxCell id="60e70716793133e9-32" style="edgeStyle=orthogonalEdgeStyle;rounded=0;html=1;labelBackgroundColor=none;startSize=5;endArrow=classicThin;endFill=1;endSize=5;jettySize=auto;orthogonalLoop=1;strokeWidth=1;fontFamily=Verdana;fontSize=8;entryX=0;entryY=0.5;entryDx=0;entryDy=0;" parent="1" source="60e70716793133e9-4" target="aiUU3dkIO-aQndbutRjK-3" edge="1">
          <mxGeometry relative="1" as="geometry" />
        </mxCell>
        <mxCell id="60e70716793133e9-4" value="Monthly Patch Push&lt;br style=&quot;border-color: var(--border-color);&quot;&gt;(Security/Update Only)" style="rounded=0;whiteSpace=wrap;html=1;shadow=1;labelBackgroundColor=none;strokeWidth=1;fontFamily=Verdana;fontSize=8;align=center;" parent="1" vertex="1">
          <mxGeometry x="40" y="40" width="120" height="60" as="geometry" />
        </mxCell>
        <mxCell id="60e70716793133e9-37" value="No" style="edgeStyle=orthogonalEdgeStyle;rounded=0;html=1;labelBackgroundColor=none;startSize=5;endArrow=classicThin;endFill=1;endSize=5;jettySize=auto;orthogonalLoop=1;strokeWidth=1;fontFamily=Verdana;fontSize=8;entryX=0.5;entryY=0;entryDx=0;entryDy=0;" parent="1" source="60e70716793133e9-5" target="aiUU3dkIO-aQndbutRjK-5" edge="1">
          <mxGeometry x="-0.5174" y="10" relative="1" as="geometry">
            <mxPoint as="offset" />
            <Array as="points" />
          </mxGeometry>
        </mxCell>
        <mxCell id="60e70716793133e9-5" value="Prod" style="rhombus;whiteSpace=wrap;html=1;rounded=0;shadow=1;labelBackgroundColor=none;strokeWidth=1;fontFamily=Verdana;fontSize=8;align=center;" parent="1" vertex="1">
          <mxGeometry x="340" y="40" width="100" height="60" as="geometry" />
        </mxCell>
        <mxCell id="60e70716793133e9-34" value="Yes" style="edgeStyle=orthogonalEdgeStyle;rounded=0;html=1;labelBackgroundColor=none;startSize=5;endArrow=classicThin;endFill=1;endSize=5;jettySize=auto;orthogonalLoop=1;strokeWidth=1;fontFamily=Verdana;fontSize=8" parent="1" source="60e70716793133e9-7" target="60e70716793133e9-8" edge="1">
          <mxGeometry x="-0.6667" y="10" relative="1" as="geometry">
            <mxPoint as="offset" />
          </mxGeometry>
        </mxCell>
        <mxCell id="60e70716793133e9-35" value="No" style="edgeStyle=orthogonalEdgeStyle;rounded=0;html=1;labelBackgroundColor=none;startSize=5;endArrow=classicThin;endFill=1;endSize=5;jettySize=auto;orthogonalLoop=1;strokeWidth=1;fontFamily=Verdana;fontSize=8;exitX=0.5;exitY=1;exitDx=0;exitDy=0;entryX=0.5;entryY=0;entryDx=0;entryDy=0;" parent="1" source="60e70716793133e9-10" target="60e70716793133e9-7" edge="1">
          <mxGeometry x="-0.0106" y="-10" relative="1" as="geometry">
            <mxPoint x="640" y="130" as="targetPoint" />
            <Array as="points" />
            <mxPoint x="10" y="10" as="offset" />
          </mxGeometry>
        </mxCell>
        <mxCell id="60e70716793133e9-8" value="Create work&amp;nbsp;&lt;div&gt;order template&lt;/div&gt;" style="rounded=1;whiteSpace=wrap;html=1;shadow=1;labelBackgroundColor=none;strokeWidth=1;fontFamily=Verdana;fontSize=8;align=center;" parent="1" vertex="1">
          <mxGeometry x="800" y="200" width="100" height="40" as="geometry" />
        </mxCell>
        <mxCell id="60e70716793133e9-38" style="edgeStyle=orthogonalEdgeStyle;rounded=0;html=1;labelBackgroundColor=none;startSize=5;endArrow=classicThin;endFill=1;endSize=5;jettySize=auto;orthogonalLoop=1;strokeWidth=1;fontFamily=Verdana;fontSize=8" parent="1" source="aiUU3dkIO-aQndbutRjK-7" target="60e70716793133e9-11" edge="1">
          <mxGeometry relative="1" as="geometry" />
        </mxCell>
        <mxCell id="60e70716793133e9-9" value="Automated(Non Prod)&lt;br&gt;" style="whiteSpace=wrap;html=1;rounded=0;shadow=1;labelBackgroundColor=none;strokeWidth=1;fontFamily=Verdana;fontSize=8;align=center;" parent="1" vertex="1">
          <mxGeometry x="50" y="200" width="120" height="40" as="geometry" />
        </mxCell>
        <mxCell id="60e70716793133e9-39" style="edgeStyle=orthogonalEdgeStyle;rounded=0;html=1;labelBackgroundColor=none;startSize=5;endArrow=classicThin;endFill=1;endSize=5;jettySize=auto;orthogonalLoop=1;strokeWidth=1;fontFamily=Verdana;fontSize=8;exitX=1;exitY=0.5;exitDx=0;exitDy=0;" parent="1" source="aiUU3dkIO-aQndbutRjK-5" target="60e70716793133e9-12" edge="1">
          <mxGeometry relative="1" as="geometry">
            <Array as="points" />
          </mxGeometry>
        </mxCell>
        <mxCell id="60e70716793133e9-11" value="Closure" style="whiteSpace=wrap;html=1;rounded=0;shadow=1;labelBackgroundColor=none;strokeWidth=1;fontFamily=Verdana;fontSize=8;align=center;spacing=6;" parent="1" vertex="1">
          <mxGeometry x="550" y="720" width="120" height="40" as="geometry" />
        </mxCell>
        <mxCell id="60e70716793133e9-40" style="edgeStyle=orthogonalEdgeStyle;rounded=0;html=1;labelBackgroundColor=none;startSize=5;endArrow=classicThin;endFill=1;endSize=5;jettySize=auto;orthogonalLoop=1;strokeWidth=1;fontFamily=Verdana;fontSize=8" parent="1" edge="1">
          <mxGeometry relative="1" as="geometry">
            <mxPoint x="300" y="985.0000000000001" as="sourcePoint" />
            <mxPoint x="130" y="1060" as="targetPoint" />
          </mxGeometry>
        </mxCell>
        <mxCell id="60e70716793133e9-12" value="Owner Action&lt;br&gt;(Patch Install)" style="whiteSpace=wrap;html=1;rounded=0;shadow=1;labelBackgroundColor=none;strokeWidth=1;fontFamily=Verdana;fontSize=8;align=center;spacing=6;" parent="1" vertex="1">
          <mxGeometry x="510" y="200" width="120" height="40" as="geometry" />
        </mxCell>
        <mxCell id="60e70716793133e9-42" style="edgeStyle=orthogonalEdgeStyle;rounded=0;html=1;labelBackgroundColor=none;startSize=5;endArrow=classicThin;endFill=1;endSize=5;jettySize=auto;orthogonalLoop=1;strokeWidth=1;fontFamily=Verdana;fontSize=8" parent="1" source="60e70716793133e9-14" target="60e70716793133e9-14" edge="1">
          <mxGeometry relative="1" as="geometry" />
        </mxCell>
        <mxCell id="60e70716793133e9-13" value="Fix Action" style="whiteSpace=wrap;html=1;rounded=0;shadow=1;labelBackgroundColor=none;strokeWidth=1;fontFamily=Verdana;fontSize=8;align=center;" parent="1" vertex="1">
          <mxGeometry x="530" y="410" width="120" height="40" as="geometry" />
        </mxCell>
        <mxCell id="60e70716793133e9-43" value="Yes" style="edgeStyle=orthogonalEdgeStyle;rounded=0;html=1;labelBackgroundColor=none;startSize=5;endArrow=classicThin;endFill=1;endSize=5;jettySize=auto;orthogonalLoop=1;strokeWidth=1;fontFamily=Verdana;fontSize=8" parent="1" source="60e70716793133e9-14" target="60e70716793133e9-15" edge="1">
          <mxGeometry x="-0.6667" y="10" relative="1" as="geometry">
            <mxPoint as="offset" />
          </mxGeometry>
        </mxCell>
        <mxCell id="60e70716793133e9-44" value="No" style="edgeStyle=orthogonalEdgeStyle;rounded=0;html=1;labelBackgroundColor=none;startSize=5;endArrow=classicThin;endFill=1;endSize=5;jettySize=auto;orthogonalLoop=1;strokeWidth=1;fontFamily=Verdana;fontSize=8" parent="1" source="60e70716793133e9-14" target="60e70716793133e9-16" edge="1">
          <mxGeometry x="-0.5" y="-10" relative="1" as="geometry">
            <mxPoint as="offset" />
          </mxGeometry>
        </mxCell>
        <mxCell id="60e70716793133e9-14" value="Material&amp;nbsp;&lt;div&gt;quantities not&amp;nbsp;&lt;/div&gt;&lt;div&gt;in stock?&lt;/div&gt;" style="rhombus;whiteSpace=wrap;html=1;rounded=0;shadow=1;labelBackgroundColor=none;strokeWidth=1;fontFamily=Verdana;fontSize=8;align=center;" parent="1" vertex="1">
          <mxGeometry x="260" y="960" width="100" height="60" as="geometry" />
        </mxCell>
        <mxCell id="60e70716793133e9-45" style="edgeStyle=orthogonalEdgeStyle;rounded=0;html=1;labelBackgroundColor=none;startSize=5;endArrow=classicThin;endFill=1;endSize=5;jettySize=auto;orthogonalLoop=1;strokeWidth=1;fontFamily=Verdana;fontSize=8" parent="1" source="60e70716793133e9-15" target="60e70716793133e9-16" edge="1">
          <mxGeometry relative="1" as="geometry">
            <Array as="points">
              <mxPoint x="480" y="1040" />
              <mxPoint x="310" y="1040" />
            </Array>
          </mxGeometry>
        </mxCell>
        <mxCell id="60e70716793133e9-15" value="Procedure or&amp;nbsp;&lt;div&gt;transfer materials&lt;/div&gt;" style="whiteSpace=wrap;html=1;rounded=0;shadow=1;labelBackgroundColor=none;strokeWidth=1;fontFamily=Verdana;fontSize=8;align=center;" parent="1" vertex="1">
          <mxGeometry x="420" y="970" width="120" height="40" as="geometry" />
        </mxCell>
        <mxCell id="60e70716793133e9-46" style="edgeStyle=orthogonalEdgeStyle;rounded=0;html=1;labelBackgroundColor=none;startSize=5;endArrow=classicThin;endFill=1;endSize=5;jettySize=auto;orthogonalLoop=1;strokeWidth=1;fontFamily=Verdana;fontSize=8" parent="1" source="60e70716793133e9-16" target="60e70716793133e9-17" edge="1">
          <mxGeometry relative="1" as="geometry" />
        </mxCell>
        <mxCell id="60e70716793133e9-16" value="Change status to&lt;div&gt;In Process&lt;/div&gt;" style="whiteSpace=wrap;html=1;rounded=0;shadow=1;labelBackgroundColor=none;strokeWidth=1;fontFamily=Verdana;fontSize=8;align=center;" parent="1" vertex="1">
          <mxGeometry x="250" y="1060" width="120" height="40" as="geometry" />
        </mxCell>
        <mxCell id="60e70716793133e9-47" value="Yes" style="edgeStyle=orthogonalEdgeStyle;rounded=0;html=1;labelBackgroundColor=none;startSize=5;endArrow=classicThin;endFill=1;endSize=5;jettySize=auto;orthogonalLoop=1;strokeWidth=1;fontFamily=Verdana;fontSize=8" parent="1" source="60e70716793133e9-17" target="60e70716793133e9-18" edge="1">
          <mxGeometry x="-0.6667" y="10" relative="1" as="geometry">
            <mxPoint as="offset" />
          </mxGeometry>
        </mxCell>
        <mxCell id="60e70716793133e9-50" value="No" style="edgeStyle=orthogonalEdgeStyle;rounded=0;html=1;labelBackgroundColor=none;startSize=5;endArrow=classicThin;endFill=1;endSize=5;jettySize=auto;orthogonalLoop=1;strokeWidth=1;fontFamily=Verdana;fontSize=8" parent="1" source="60e70716793133e9-17" target="60e70716793133e9-19" edge="1">
          <mxGeometry x="-1" y="-10" relative="1" as="geometry">
            <mxPoint as="offset" />
          </mxGeometry>
        </mxCell>
        <mxCell id="60e70716793133e9-17" value="Step&amp;nbsp;&lt;div&gt;performed by&amp;nbsp;&lt;/div&gt;&lt;div&gt;outside&amp;nbsp;&lt;/div&gt;&lt;div&gt;vendor?&lt;/div&gt;" style="rhombus;whiteSpace=wrap;html=1;rounded=0;shadow=1;labelBackgroundColor=none;strokeWidth=1;fontFamily=Verdana;fontSize=8;align=center;" parent="1" vertex="1">
          <mxGeometry x="260" y="1130" width="100" height="60" as="geometry" />
        </mxCell>
        <mxCell id="60e70716793133e9-48" style="edgeStyle=orthogonalEdgeStyle;rounded=0;html=1;labelBackgroundColor=none;startSize=5;endArrow=classicThin;endFill=1;endSize=5;jettySize=auto;orthogonalLoop=1;strokeWidth=1;fontFamily=Verdana;fontSize=8" parent="1" source="60e70716793133e9-18" target="60e70716793133e9-20" edge="1">
          <mxGeometry relative="1" as="geometry" />
        </mxCell>
        <mxCell id="60e70716793133e9-18" value="Add or adjust vendor costs" style="whiteSpace=wrap;html=1;rounded=0;shadow=1;labelBackgroundColor=none;strokeWidth=1;fontFamily=Verdana;fontSize=8;align=center;" parent="1" vertex="1">
          <mxGeometry x="420" y="1140" width="120" height="40" as="geometry" />
        </mxCell>
        <mxCell id="60e70716793133e9-52" style="edgeStyle=orthogonalEdgeStyle;rounded=0;html=1;labelBackgroundColor=none;startSize=5;endArrow=classicThin;endFill=1;endSize=5;jettySize=auto;orthogonalLoop=1;strokeWidth=1;fontFamily=Verdana;fontSize=8" parent="1" source="60e70716793133e9-19" target="60e70716793133e9-21" edge="1">
          <mxGeometry relative="1" as="geometry" />
        </mxCell>
        <mxCell id="60e70716793133e9-19" value="Perform work&amp;nbsp;&lt;div&gt;order step&lt;/div&gt;" style="shape=trapezoid;whiteSpace=wrap;html=1;rounded=0;shadow=1;labelBackgroundColor=none;strokeWidth=1;fontFamily=Verdana;fontSize=8;align=center;flipV=1;" parent="1" vertex="1">
          <mxGeometry x="250" y="1230" width="120" height="60" as="geometry" />
        </mxCell>
        <mxCell id="60e70716793133e9-49" style="edgeStyle=orthogonalEdgeStyle;rounded=0;html=1;labelBackgroundColor=none;startSize=5;endArrow=classicThin;endFill=1;endSize=5;jettySize=auto;orthogonalLoop=1;strokeWidth=1;fontFamily=Verdana;fontSize=8" parent="1" source="60e70716793133e9-20" target="60e70716793133e9-22" edge="1">
          <mxGeometry relative="1" as="geometry" />
        </mxCell>
        <mxCell id="60e70716793133e9-53" style="edgeStyle=orthogonalEdgeStyle;rounded=0;html=1;labelBackgroundColor=none;startSize=5;endArrow=classicThin;endFill=1;endSize=5;jettySize=auto;orthogonalLoop=1;strokeWidth=1;fontFamily=Verdana;fontSize=8" parent="1" source="60e70716793133e9-20" target="60e70716793133e9-27" edge="1">
          <mxGeometry relative="1" as="geometry">
            <Array as="points">
              <mxPoint x="480" y="1310" />
              <mxPoint x="650" y="1310" />
            </Array>
          </mxGeometry>
        </mxCell>
        <mxCell id="60e70716793133e9-20" value="Ship materials&amp;nbsp;&lt;div&gt;to vendor&lt;/div&gt;" style="rounded=1;whiteSpace=wrap;html=1;shadow=1;labelBackgroundColor=none;strokeWidth=1;fontFamily=Verdana;fontSize=8;align=center;" parent="1" vertex="1">
          <mxGeometry x="420" y="1240" width="120" height="40" as="geometry" />
        </mxCell>
        <mxCell id="60e70716793133e9-51" value="Yes" style="edgeStyle=orthogonalEdgeStyle;rounded=0;html=1;labelBackgroundColor=none;startSize=5;endArrow=classicThin;endFill=1;endSize=5;jettySize=auto;orthogonalLoop=1;strokeWidth=1;fontFamily=Verdana;fontSize=8" parent="1" source="60e70716793133e9-21" target="60e70716793133e9-17" edge="1">
          <mxGeometry x="-0.6924" y="-20" relative="1" as="geometry">
            <Array as="points">
              <mxPoint x="230" y="1359.9999999999998" />
              <mxPoint x="230" y="1160" />
            </Array>
            <mxPoint as="offset" />
          </mxGeometry>
        </mxCell>
        <mxCell id="60e70716793133e9-54" value="No" style="edgeStyle=orthogonalEdgeStyle;rounded=0;html=1;labelBackgroundColor=none;startSize=5;endArrow=classicThin;endFill=1;endSize=5;jettySize=auto;orthogonalLoop=1;strokeWidth=1;fontFamily=Verdana;fontSize=8" parent="1" source="60e70716793133e9-21" target="60e70716793133e9-23" edge="1">
          <mxGeometry x="-1" y="-10" relative="1" as="geometry">
            <mxPoint as="offset" />
          </mxGeometry>
        </mxCell>
        <mxCell id="60e70716793133e9-21" value="Additional&amp;nbsp;&lt;div&gt;processing&amp;nbsp;&lt;/div&gt;&lt;div&gt;required?&lt;/div&gt;" style="rhombus;whiteSpace=wrap;html=1;rounded=0;shadow=1;labelBackgroundColor=none;strokeWidth=1;fontFamily=Verdana;fontSize=8;align=center;" parent="1" vertex="1">
          <mxGeometry x="260" y="1330" width="100" height="60" as="geometry" />
        </mxCell>
        <mxCell id="60e70716793133e9-58" style="edgeStyle=orthogonalEdgeStyle;rounded=0;html=1;labelBackgroundColor=none;startSize=5;endArrow=classicThin;endFill=1;endSize=5;jettySize=auto;orthogonalLoop=1;strokeWidth=1;fontFamily=Verdana;fontSize=8" parent="1" source="60e70716793133e9-22" target="60e70716793133e9-24" edge="1">
          <mxGeometry relative="1" as="geometry" />
        </mxCell>
        <mxCell id="60e70716793133e9-22" value="Perform work&amp;nbsp;&lt;div&gt;order step&lt;/div&gt;" style="shape=trapezoid;whiteSpace=wrap;html=1;rounded=0;shadow=1;labelBackgroundColor=none;strokeWidth=1;fontFamily=Verdana;fontSize=8;align=center;flipV=1;" parent="1" vertex="1">
          <mxGeometry x="420" y="1330" width="120" height="60" as="geometry" />
        </mxCell>
        <mxCell id="60e70716793133e9-55" style="edgeStyle=orthogonalEdgeStyle;rounded=0;html=1;labelBackgroundColor=none;startSize=5;endArrow=classicThin;endFill=1;endSize=5;jettySize=auto;orthogonalLoop=1;strokeWidth=1;fontFamily=Verdana;fontSize=8" parent="1" source="60e70716793133e9-23" target="60e70716793133e9-25" edge="1">
          <mxGeometry relative="1" as="geometry" />
        </mxCell>
        <mxCell id="60e70716793133e9-23" value="Receive info stock" style="rounded=1;whiteSpace=wrap;html=1;shadow=1;labelBackgroundColor=none;strokeWidth=1;fontFamily=Verdana;fontSize=8;align=center;" parent="1" vertex="1">
          <mxGeometry x="250" y="1430" width="120" height="40" as="geometry" />
        </mxCell>
        <mxCell id="60e70716793133e9-59" style="edgeStyle=orthogonalEdgeStyle;rounded=0;html=1;labelBackgroundColor=none;startSize=5;endArrow=classicThin;endFill=1;endSize=5;jettySize=auto;orthogonalLoop=1;strokeWidth=1;fontFamily=Verdana;fontSize=8" parent="1" source="60e70716793133e9-24" target="60e70716793133e9-26" edge="1">
          <mxGeometry relative="1" as="geometry" />
        </mxCell>
        <mxCell id="60e70716793133e9-24" value="Receive product&amp;nbsp;&lt;div&gt;from vendor&lt;/div&gt;" style="rounded=1;whiteSpace=wrap;html=1;shadow=1;labelBackgroundColor=none;strokeWidth=1;fontFamily=Verdana;fontSize=8;align=center;" parent="1" vertex="1">
          <mxGeometry x="420" y="1430" width="120" height="40" as="geometry" />
        </mxCell>
        <mxCell id="60e70716793133e9-56" style="edgeStyle=orthogonalEdgeStyle;rounded=0;html=1;labelBackgroundColor=none;startSize=5;endArrow=classicThin;endFill=1;endSize=5;jettySize=auto;orthogonalLoop=1;strokeWidth=1;fontFamily=Verdana;fontSize=8" parent="1" source="60e70716793133e9-25" target="60e70716793133e9-28" edge="1">
          <mxGeometry relative="1" as="geometry" />
        </mxCell>
        <mxCell id="60e70716793133e9-25" value="Ship product on order if needed" style="rounded=1;whiteSpace=wrap;html=1;shadow=1;labelBackgroundColor=none;strokeWidth=1;fontFamily=Verdana;fontSize=8;align=center;" parent="1" vertex="1">
          <mxGeometry x="250" y="1510" width="120" height="40" as="geometry" />
        </mxCell>
        <mxCell id="60e70716793133e9-60" value="No" style="edgeStyle=orthogonalEdgeStyle;rounded=0;html=1;labelBackgroundColor=none;startSize=5;endArrow=classicThin;endFill=1;endSize=5;jettySize=auto;orthogonalLoop=1;strokeWidth=1;fontFamily=Verdana;fontSize=8" parent="1" source="60e70716793133e9-26" target="60e70716793133e9-29" edge="1">
          <mxGeometry x="0.2" y="14" relative="1" as="geometry">
            <mxPoint x="-24" y="-10" as="offset" />
          </mxGeometry>
        </mxCell>
        <mxCell id="60e70716793133e9-61" value="Yes" style="edgeStyle=orthogonalEdgeStyle;rounded=0;html=1;labelBackgroundColor=none;startSize=5;endArrow=classicThin;endFill=1;endSize=5;jettySize=auto;orthogonalLoop=1;strokeWidth=1;fontFamily=Verdana;fontSize=8" parent="1" source="60e70716793133e9-26" target="60e70716793133e9-27" edge="1">
          <mxGeometry x="-0.6667" y="10" relative="1" as="geometry">
            <mxPoint as="offset" />
          </mxGeometry>
        </mxCell>
        <mxCell id="60e70716793133e9-26" value="Only partial&amp;nbsp;&lt;div&gt;quality&amp;nbsp;&lt;/div&gt;&lt;div&gt;received?&lt;/div&gt;" style="rhombus;whiteSpace=wrap;html=1;rounded=0;shadow=1;labelBackgroundColor=none;strokeWidth=1;fontFamily=Verdana;fontSize=8;align=center;" parent="1" vertex="1">
          <mxGeometry x="430" y="1500" width="100" height="60" as="geometry" />
        </mxCell>
        <mxCell id="60e70716793133e9-27" value="Create work&amp;nbsp;&lt;div&gt;order backorder&lt;/div&gt;" style="whiteSpace=wrap;html=1;rounded=0;shadow=1;labelBackgroundColor=none;strokeWidth=1;fontFamily=Verdana;fontSize=8;align=center;" parent="1" vertex="1">
          <mxGeometry x="590" y="1510" width="120" height="40" as="geometry" />
        </mxCell>
        <mxCell id="60e70716793133e9-57" style="edgeStyle=orthogonalEdgeStyle;rounded=0;html=1;labelBackgroundColor=none;startSize=5;endArrow=classicThin;endFill=1;endSize=5;jettySize=auto;orthogonalLoop=1;strokeWidth=1;fontFamily=Verdana;fontSize=8" parent="1" source="60e70716793133e9-28" target="60e70716793133e9-30" edge="1">
          <mxGeometry relative="1" as="geometry" />
        </mxCell>
        <mxCell id="60e70716793133e9-28" value="Change status to&lt;div&gt;Complete&lt;/div&gt;" style="whiteSpace=wrap;html=1;rounded=0;shadow=1;labelBackgroundColor=none;strokeWidth=1;fontFamily=Verdana;fontSize=8;align=center;" parent="1" vertex="1">
          <mxGeometry x="250" y="1590" width="120" height="40" as="geometry" />
        </mxCell>
        <mxCell id="60e70716793133e9-62" style="edgeStyle=orthogonalEdgeStyle;rounded=0;html=1;labelBackgroundColor=none;startSize=5;endArrow=classicThin;endFill=1;endSize=5;jettySize=auto;orthogonalLoop=1;strokeWidth=1;fontFamily=Verdana;fontSize=8" parent="1" source="60e70716793133e9-29" target="60e70716793133e9-21" edge="1">
          <mxGeometry relative="1" as="geometry">
            <Array as="points">
              <mxPoint x="400" y="1610" />
              <mxPoint x="400" y="1310" />
              <mxPoint x="310" y="1310" />
            </Array>
          </mxGeometry>
        </mxCell>
        <mxCell id="60e70716793133e9-29" value="Pay vendor invoice" style="rounded=1;whiteSpace=wrap;html=1;shadow=1;labelBackgroundColor=none;strokeWidth=1;fontFamily=Verdana;fontSize=8;align=center;" parent="1" vertex="1">
          <mxGeometry x="420" y="1590" width="120" height="40" as="geometry" />
        </mxCell>
        <mxCell id="60e70716793133e9-30" value="End" style="strokeWidth=1;html=1;shape=mxgraph.flowchart.terminator;whiteSpace=wrap;rounded=0;shadow=1;labelBackgroundColor=none;fontFamily=Verdana;fontSize=8;align=center;" parent="1" vertex="1">
          <mxGeometry x="280" y="1680" width="60" height="30" as="geometry" />
        </mxCell>
        <mxCell id="60e70716793133e9-7" value="Patch Support&lt;br&gt;(Snapshot/Backup)" style="rhombus;whiteSpace=wrap;html=1;rounded=0;shadow=1;labelBackgroundColor=none;strokeWidth=1;fontFamily=Verdana;fontSize=8;align=center;" parent="1" vertex="1">
          <mxGeometry x="700" y="190" width="100" height="80" as="geometry" />
        </mxCell>
        <mxCell id="aiUU3dkIO-aQndbutRjK-2" value="Yes" style="edgeStyle=orthogonalEdgeStyle;rounded=0;html=1;labelBackgroundColor=none;startSize=5;endArrow=classicThin;endFill=1;endSize=5;jettySize=auto;orthogonalLoop=1;strokeWidth=1;fontFamily=Verdana;fontSize=8" edge="1" parent="1" source="60e70716793133e9-5" target="60e70716793133e9-10">
          <mxGeometry x="-0.0667" y="-10" relative="1" as="geometry">
            <mxPoint x="630" y="80" as="targetPoint" />
            <Array as="points" />
            <mxPoint as="offset" />
            <mxPoint x="340" y="70" as="sourcePoint" />
          </mxGeometry>
        </mxCell>
        <mxCell id="60e70716793133e9-10" value="Owner Action&lt;br style=&quot;border-color: var(--border-color);&quot;&gt;(Patch Install)" style="whiteSpace=wrap;html=1;rounded=0;shadow=1;labelBackgroundColor=none;strokeWidth=1;fontFamily=Verdana;fontSize=8;align=center;" parent="1" vertex="1">
          <mxGeometry x="499" y="50" width="120" height="40" as="geometry" />
        </mxCell>
        <mxCell id="aiUU3dkIO-aQndbutRjK-3" value="Notification &lt;br&gt;(CRQ and SUM patching&lt;br&gt;calendar )" style="whiteSpace=wrap;html=1;rounded=0;shadow=1;labelBackgroundColor=none;strokeWidth=1;fontFamily=Verdana;fontSize=8;align=center;" vertex="1" parent="1">
          <mxGeometry x="200" y="50" width="120" height="40" as="geometry" />
        </mxCell>
        <mxCell id="aiUU3dkIO-aQndbutRjK-4" style="edgeStyle=orthogonalEdgeStyle;rounded=0;html=1;labelBackgroundColor=none;startSize=5;endArrow=classicThin;endFill=1;endSize=5;jettySize=auto;orthogonalLoop=1;strokeWidth=1;fontFamily=Verdana;fontSize=8;exitX=1;exitY=0.5;exitDx=0;exitDy=0;entryX=0;entryY=0.5;entryDx=0;entryDy=0;" edge="1" parent="1" source="aiUU3dkIO-aQndbutRjK-3" target="60e70716793133e9-5">
          <mxGeometry relative="1" as="geometry">
            <mxPoint x="520" y="820" as="sourcePoint" />
            <mxPoint x="520" y="860" as="targetPoint" />
          </mxGeometry>
        </mxCell>
        <mxCell id="aiUU3dkIO-aQndbutRjK-5" value="Automated Agreed" style="rhombus;whiteSpace=wrap;html=1;rounded=0;shadow=1;labelBackgroundColor=none;strokeWidth=1;fontFamily=Verdana;fontSize=8;align=center;" vertex="1" parent="1">
          <mxGeometry x="340" y="190" width="100" height="60" as="geometry" />
        </mxCell>
        <mxCell id="aiUU3dkIO-aQndbutRjK-6" value="Yes" style="edgeStyle=orthogonalEdgeStyle;rounded=0;html=1;labelBackgroundColor=none;startSize=5;endArrow=classicThin;endFill=1;endSize=5;jettySize=auto;orthogonalLoop=1;strokeWidth=1;fontFamily=Verdana;fontSize=8;entryX=1;entryY=0.5;entryDx=0;entryDy=0;exitX=0;exitY=0.5;exitDx=0;exitDy=0;" edge="1" parent="1" source="aiUU3dkIO-aQndbutRjK-5" target="60e70716793133e9-9">
          <mxGeometry x="-0.0667" y="-10" relative="1" as="geometry">
            <mxPoint x="280" y="170" as="targetPoint" />
            <Array as="points" />
            <mxPoint as="offset" />
            <mxPoint x="300" y="220" as="sourcePoint" />
          </mxGeometry>
        </mxCell>
        <mxCell id="aiUU3dkIO-aQndbutRjK-8" value="&#xa;&lt;span style=&quot;color: rgb(0, 0, 0); font-family: Verdana; font-size: 8px; font-style: normal; font-variant-ligatures: normal; font-variant-caps: normal; font-weight: 400; letter-spacing: normal; orphans: 2; text-align: center; text-indent: 0px; text-transform: none; widows: 2; word-spacing: 0px; -webkit-text-stroke-width: 0px; background-color: rgb(251, 251, 251); text-decoration-thickness: initial; text-decoration-style: initial; text-decoration-color: initial; float: none; display: inline !important;&quot;&gt;Yes&lt;/span&gt;&#xa;&#xa;" style="edgeStyle=orthogonalEdgeStyle;rounded=0;html=1;labelBackgroundColor=none;startSize=5;endArrow=classicThin;endFill=1;endSize=5;jettySize=auto;orthogonalLoop=1;strokeWidth=1;fontFamily=Verdana;fontSize=4;exitX=0.5;exitY=1;exitDx=0;exitDy=0;jumpSize=6;" edge="1" parent="1" source="aiUU3dkIO-aQndbutRjK-9" target="aiUU3dkIO-aQndbutRjK-7">
          <mxGeometry relative="1" as="geometry">
            <mxPoint x="170" y="272.0344827586207" as="sourcePoint" />
            <mxPoint x="340" y="272" as="targetPoint" />
          </mxGeometry>
        </mxCell>
        <mxCell id="aiUU3dkIO-aQndbutRjK-7" value="Patch Completed" style="rhombus;whiteSpace=wrap;html=1;rounded=0;shadow=1;labelBackgroundColor=none;strokeWidth=1;fontFamily=Verdana;fontSize=8;align=center;" vertex="1" parent="1">
          <mxGeometry x="580" y="540" width="100" height="60" as="geometry" />
        </mxCell>
        <mxCell id="aiUU3dkIO-aQndbutRjK-9" value="Patch Install TS" style="rhombus;whiteSpace=wrap;html=1;rounded=0;shadow=1;labelBackgroundColor=none;strokeWidth=1;fontFamily=Verdana;fontSize=8;align=center;" vertex="1" parent="1">
          <mxGeometry x="340" y="330" width="100" height="60" as="geometry" />
        </mxCell>
        <mxCell id="aiUU3dkIO-aQndbutRjK-10" style="edgeStyle=orthogonalEdgeStyle;rounded=0;html=1;labelBackgroundColor=none;startSize=5;endArrow=classicThin;endFill=1;endSize=5;jettySize=auto;orthogonalLoop=1;strokeWidth=1;fontFamily=Verdana;fontSize=8;exitX=0.5;exitY=1;exitDx=0;exitDy=0;" edge="1" parent="1" source="aiUU3dkIO-aQndbutRjK-5" target="aiUU3dkIO-aQndbutRjK-9">
          <mxGeometry relative="1" as="geometry">
            <mxPoint x="389.31" y="371" as="sourcePoint" />
            <mxPoint x="389" y="410" as="targetPoint" />
            <Array as="points">
              <mxPoint x="389" y="250" />
            </Array>
          </mxGeometry>
        </mxCell>
        <mxCell id="aiUU3dkIO-aQndbutRjK-11" value="" style="edgeStyle=orthogonalEdgeStyle;rounded=0;html=1;labelBackgroundColor=none;startSize=5;endArrow=classicThin;endFill=1;endSize=5;jettySize=auto;orthogonalLoop=1;strokeWidth=1;fontFamily=Verdana;fontSize=8;entryX=0;entryY=0.5;entryDx=0;entryDy=0;exitX=0.5;exitY=1;exitDx=0;exitDy=0;" edge="1" parent="1" source="60e70716793133e9-9" target="aiUU3dkIO-aQndbutRjK-9">
          <mxGeometry x="-0.5174" y="10" relative="1" as="geometry">
            <mxPoint as="offset" />
            <mxPoint x="200" y="371" as="sourcePoint" />
            <mxPoint x="200" y="461" as="targetPoint" />
            <Array as="points">
              <mxPoint x="110" y="360" />
            </Array>
          </mxGeometry>
        </mxCell>
        <mxCell id="aiUU3dkIO-aQndbutRjK-12" value="Yes" style="edgeStyle=orthogonalEdgeStyle;rounded=0;html=1;labelBackgroundColor=none;startSize=5;endArrow=classicThin;endFill=1;endSize=5;jettySize=auto;orthogonalLoop=1;strokeWidth=1;fontFamily=Verdana;fontSize=8;entryX=0;entryY=0.5;entryDx=0;entryDy=0;exitX=1;exitY=0.5;exitDx=0;exitDy=0;" edge="1" parent="1" source="aiUU3dkIO-aQndbutRjK-9" target="60e70716793133e9-13">
          <mxGeometry y="-10" relative="1" as="geometry">
            <mxPoint x="180" y="230" as="targetPoint" />
            <Array as="points" />
            <mxPoint as="offset" />
            <mxPoint x="350" y="230" as="sourcePoint" />
          </mxGeometry>
        </mxCell>
      </root>
    </mxGraphModel>
  </diagram>
</mxfile>
